<svg width="1059" height="347" viewBox="0 0 1059 347" fill="none" xmlns="http://www.w3.org/2000/svg">
<path d="M501.051 106.506H459.447V225.55H426.489V106.506H385.087V79.7693H501.051V106.506ZM639.598 162.419C639.598 206.201 619.185 228.092 578.362 228.092C538.757 228.092 518.955 206.709 518.955 163.944V79.7693H551.913V164.35C551.913 187.935 561.137 199.728 579.582 199.728C597.688 199.728 606.741 188.343 606.741 165.57V79.7693H639.598V162.419ZM795.03 225.55H759.223L748.849 193.121H696.97L686.696 225.55H651.093L704.192 79.7693H743.151L795.03 225.55ZM741.321 167.908L725.655 118.908C724.502 115.249 723.688 110.877 723.214 105.794H722.4C722.061 110.064 721.214 114.3 719.856 118.502L703.989 167.908H741.321ZM813.239 225.55V79.7693H866.337C882.613 79.7693 895.124 82.7512 903.874 88.7153C912.622 94.6793 916.995 103.083 916.995 113.927C916.995 121.789 914.317 128.668 908.959 134.564C903.669 140.46 896.888 144.561 888.614 146.865V147.271C898.991 148.559 907.265 152.388 913.435 158.759C919.674 165.13 922.794 172.89 922.794 182.039C922.794 195.39 918.013 205.996 908.45 213.859C898.888 221.653 885.835 225.55 869.288 225.55H813.239ZM846.094 103.964V138.529H860.54C867.321 138.529 872.644 136.902 876.51 133.649C880.443 130.328 882.409 125.787 882.409 120.027C882.409 109.318 874.408 103.964 858.403 103.964H846.094ZM846.094 162.927V201.355H863.896C871.491 201.355 877.425 199.592 881.698 196.069C886.038 192.545 888.208 187.732 888.208 181.633C888.208 175.804 886.073 171.229 881.8 167.908C877.595 164.588 871.694 162.927 864.099 162.927H846.094ZM940.188 219.958V187.427C946.088 192.375 952.496 196.102 959.414 198.61C966.331 201.05 973.317 202.27 980.369 202.27C984.506 202.27 988.099 201.896 991.152 201.152C994.271 200.406 996.847 199.389 998.882 198.102C1000.98 196.745 1002.54 195.187 1003.56 193.425C1004.58 191.596 1005.09 189.63 1005.09 187.529C1005.09 184.682 1004.27 182.14 1002.65 179.904C1001.02 177.667 998.78 175.601 995.933 173.703C993.151 171.805 989.829 169.976 985.964 168.213C982.098 166.451 977.928 164.655 973.452 162.826C962.058 158.081 953.548 152.287 947.92 145.442C942.358 138.596 939.578 130.328 939.578 120.636C939.578 113.046 941.104 106.54 944.156 101.118C947.206 95.6282 951.343 91.1212 956.566 87.5971C961.855 84.0728 967.959 81.4975 974.876 79.8709C981.792 78.1765 989.117 77.3293 996.847 77.3293C1004.44 77.3293 1011.16 77.8039 1016.99 78.7526C1022.89 79.6336 1028.31 81.023 1033.26 82.9207V113.317C1030.82 111.623 1028.15 110.132 1025.23 108.844C1022.38 107.556 1019.43 106.506 1016.38 105.693C1013.33 104.812 1010.28 104.168 1007.22 103.761C1004.24 103.354 1001.39 103.151 998.679 103.151C994.948 103.151 991.558 103.524 988.507 104.269C985.455 104.947 982.877 105.93 980.775 107.217C978.673 108.505 977.046 110.064 975.893 111.894C974.74 113.656 974.164 115.655 974.164 117.892C974.164 120.332 974.808 122.534 976.096 124.5C977.384 126.397 979.216 128.227 981.589 129.989C983.962 131.684 986.846 133.378 990.237 135.072C993.627 136.699 997.459 138.393 1001.73 140.155C1007.56 142.595 1012.78 145.204 1017.4 147.983C1022.07 150.694 1026.08 153.778 1029.4 157.234C1032.72 160.691 1035.26 164.655 1037.03 169.128C1038.79 173.534 1039.67 178.684 1039.67 184.581C1039.67 192.713 1038.11 199.559 1034.99 205.117C1031.94 210.606 1027.77 215.079 1022.48 218.535C1017.19 221.924 1011.02 224.363 1003.97 225.855C996.983 227.345 989.593 228.092 981.792 228.092C973.791 228.092 966.161 227.413 958.906 226.058C951.717 224.703 945.477 222.67 940.188 219.958Z" fill="white"/>
<path d="M434.22 273.228H427.201V294.95H424.354V273.228H417.35V270.653H434.22V273.228ZM455.835 285.123C455.835 291.945 452.756 295.356 446.596 295.356C440.697 295.356 437.746 292.075 437.746 285.513V270.653H440.595V285.326C440.595 290.307 442.697 292.798 446.902 292.798C450.959 292.798 452.988 290.392 452.988 285.581V270.653H455.835V285.123ZM450.039 268.399C449.586 268.399 449.195 268.241 448.869 267.926C448.54 267.61 448.376 267.207 448.376 266.721C448.376 266.248 448.535 265.852 448.851 265.536C449.167 265.221 449.553 265.061 450.004 265.061C450.478 265.061 450.881 265.226 451.207 265.554C451.535 265.87 451.7 266.26 451.7 266.721C451.7 267.185 451.54 267.58 451.224 267.908C450.908 268.236 450.513 268.399 450.039 268.399ZM443.528 268.399C443.053 268.399 442.647 268.236 442.306 267.908C441.98 267.57 441.815 267.174 441.815 266.721C441.815 266.248 441.973 265.852 442.291 265.536C442.617 265.221 443.013 265.061 443.476 265.061C443.94 265.061 444.341 265.226 444.681 265.554C445.02 265.87 445.19 266.26 445.19 266.721C445.19 267.185 445.025 267.58 444.697 267.908C444.37 268.236 443.98 268.399 443.528 268.399ZM479.35 294.95H475.96L471.891 288.138C471.519 287.507 471.156 286.969 470.806 286.528C470.457 286.077 470.094 285.709 469.72 285.428C469.359 285.145 468.964 284.942 468.535 284.817C468.116 284.682 467.641 284.615 467.109 284.615H464.771V294.95H461.922V270.653H469.179C470.241 270.653 471.219 270.788 472.111 271.059C473.016 271.319 473.795 271.72 474.451 272.263C475.118 272.804 475.639 273.483 476.01 274.296C476.383 275.098 476.571 276.042 476.571 277.126C476.571 277.973 476.441 278.752 476.18 279.463C475.932 280.164 475.571 280.791 475.095 281.344C474.632 281.897 474.068 282.373 473.401 282.768C472.745 283.152 472.005 283.45 471.179 283.665V283.733C471.587 283.914 471.936 284.123 472.231 284.359C472.536 284.587 472.825 284.857 473.095 285.173C473.366 285.491 473.632 285.852 473.892 286.258C474.163 286.653 474.463 287.116 474.79 287.647L479.35 294.95ZM464.771 273.228V282.04H468.635C469.349 282.04 470.003 281.932 470.602 281.717C471.214 281.502 471.74 281.198 472.179 280.803C472.62 280.395 472.965 279.904 473.213 279.328C473.462 278.742 473.587 278.086 473.587 277.362C473.587 276.064 473.163 275.053 472.316 274.329C471.479 273.595 470.264 273.228 468.67 273.228H464.771ZM499.628 294.95H495.661L486.269 283.835C485.918 283.417 485.703 283.135 485.625 282.987H485.557V294.95H482.708V270.653H485.557V282.073H485.625C485.783 281.825 485.996 281.547 486.269 281.243L495.355 270.653H498.899L488.472 282.31L499.628 294.95ZM505.697 294.95H502.848V270.653H505.697V294.95ZM504.273 268.399C503.82 268.399 503.424 268.241 503.086 267.926C502.758 267.598 502.595 267.197 502.595 266.721C502.595 266.27 502.758 265.887 503.086 265.569C503.414 265.254 503.81 265.096 504.273 265.096C504.737 265.096 505.126 265.254 505.443 265.569C505.77 265.875 505.935 266.26 505.935 266.721C505.935 267.185 505.77 267.58 505.443 267.908C505.126 268.236 504.737 268.399 504.273 268.399ZM527.906 270.653L519.888 285.97V294.95H517.039V286.037L509.223 270.653H512.462L517.903 281.632C517.971 281.767 518.169 282.265 518.497 283.124H518.547C518.662 282.739 518.875 282.243 519.191 281.632L524.889 270.653H527.906ZM544.182 294.95H531.297V270.653H543.64V273.228H534.146V281.311H542.927V283.868H534.146V292.375H544.182V294.95ZM576.174 285.123C576.174 291.945 573.095 295.356 566.933 295.356C561.034 295.356 558.084 292.075 558.084 285.513V270.653H560.932V285.326C560.932 290.307 563.034 292.798 567.239 292.798C571.298 292.798 573.325 290.392 573.325 285.581V270.653H576.174V285.123ZM594.873 294.95H582.261V270.653H585.108V292.375H594.873V294.95ZM615.71 285.123C615.71 291.945 612.63 295.356 606.47 295.356C600.571 295.356 597.62 292.075 597.62 285.513V270.653H600.469V285.326C600.469 290.307 602.571 292.798 606.776 292.798C610.833 292.798 612.863 290.392 612.863 285.581V270.653H615.71V285.123ZM620.661 293.968V290.612C621.045 290.951 621.503 291.256 622.034 291.527C622.576 291.799 623.142 292.03 623.729 292.222C624.328 292.403 624.926 292.543 625.525 292.646C626.126 292.746 626.68 292.798 627.189 292.798C628.94 292.798 630.246 292.476 631.103 291.832C631.975 291.178 632.409 290.239 632.409 289.02C632.409 288.364 632.263 287.795 631.968 287.309C631.687 286.823 631.291 286.382 630.782 285.987C630.274 285.581 629.669 285.196 628.968 284.835C628.279 284.462 627.532 284.071 626.73 283.665C625.883 283.237 625.091 282.801 624.357 282.361C623.621 281.92 622.984 281.434 622.44 280.903C621.899 280.372 621.468 279.774 621.152 279.108C620.847 278.431 620.694 277.64 620.694 276.736C620.694 275.629 620.937 274.669 621.423 273.856C621.909 273.032 622.548 272.353 623.34 271.822C624.13 271.291 625.029 270.896 626.034 270.636C627.051 270.377 628.086 270.247 629.138 270.247C631.534 270.247 633.28 270.535 634.376 271.111V274.312C632.94 273.32 631.098 272.822 628.85 272.822C628.227 272.822 627.605 272.889 626.984 273.025C626.362 273.15 625.808 273.358 625.322 273.653C624.836 273.946 624.442 274.324 624.137 274.787C623.831 275.251 623.678 275.815 623.678 276.481C623.678 277.104 623.791 277.64 624.017 278.091C624.255 278.544 624.6 278.955 625.051 279.328C625.503 279.701 626.051 280.062 626.695 280.412C627.352 280.763 628.103 281.146 628.951 281.564C629.82 281.995 630.647 282.446 631.426 282.919C632.206 283.395 632.89 283.92 633.478 284.496C634.065 285.073 634.529 285.709 634.867 286.41C635.218 287.111 635.393 287.913 635.393 288.817C635.393 290.014 635.155 291.031 634.681 291.867C634.218 292.691 633.584 293.362 632.782 293.883C631.991 294.402 631.076 294.775 630.036 295C628.996 295.238 627.9 295.356 626.748 295.356C626.362 295.356 625.888 295.323 625.322 295.255C624.758 295.198 624.182 295.108 623.593 294.985C623.006 294.87 622.446 294.73 621.914 294.56C621.395 294.379 620.977 294.181 620.661 293.968ZM659.061 294.95H655.907L653.33 288.138H643.023L640.598 294.95H637.428L646.752 270.653H649.702L659.061 294.95ZM652.398 285.581L648.584 275.228C648.459 274.89 648.336 274.347 648.211 273.601H648.143C648.03 274.289 647.9 274.833 647.752 275.228L643.973 285.581H652.398ZM675.269 294.95H662.655V270.653H665.504V292.375H675.269V294.95ZM707.344 294.95H704.192L701.615 288.138H691.307L688.883 294.95H685.711L695.037 270.653H697.987L707.344 294.95ZM700.683 285.581L696.867 275.228C696.744 274.89 696.619 274.347 696.494 273.601H696.426C696.313 274.289 696.183 274.833 696.037 275.228L692.256 285.581H700.683ZM723.282 273.228H713.787V281.632H722.57V284.191H713.787V294.95H710.94V270.653H723.282V273.228ZM740.778 294.95H727.893V270.653H740.236V273.228H730.741V281.311H739.524V283.868H730.741V292.375H740.778V294.95ZM759.834 273.228H752.815V294.95H749.967V273.228H742.965V270.653H759.834V273.228ZM773.193 294.95V270.653H780.11C782.212 270.653 783.881 271.167 785.111 272.195C786.344 273.222 786.96 274.562 786.96 276.21C786.96 277.588 786.587 278.787 785.841 279.803C785.096 280.818 784.066 281.542 782.756 281.972V282.04C784.394 282.231 785.705 282.852 786.69 283.903C787.672 284.942 788.163 286.297 788.163 287.97C788.163 290.047 787.417 291.731 785.926 293.019C784.434 294.306 782.553 294.95 780.28 294.95H773.193ZM776.042 273.228V281.073H778.957C780.518 281.073 781.744 280.7 782.638 279.954C783.53 279.198 783.976 278.136 783.976 276.769C783.976 274.409 782.422 273.228 779.313 273.228H776.042ZM776.042 283.632V292.375H779.907C781.58 292.375 782.874 291.98 783.79 291.188C784.716 290.397 785.179 289.313 785.179 287.935C785.179 285.066 783.224 283.632 779.313 283.632H776.042ZM795.946 294.95H793.097V270.653H795.946V294.95ZM794.521 268.399C794.07 268.399 793.674 268.241 793.335 267.926C793.007 267.598 792.842 267.197 792.842 266.721C792.842 266.27 793.007 265.887 793.335 265.569C793.662 265.254 794.057 265.096 794.521 265.096C794.984 265.096 795.375 265.254 795.691 265.569C796.019 265.875 796.182 266.26 796.182 266.721C796.182 267.185 796.019 267.58 795.691 267.908C795.375 268.236 794.984 268.399 794.521 268.399ZM814.968 294.95H802.354V270.653H805.203V292.375H814.968V294.95ZM835.752 293.29C833.312 294.667 830.6 295.356 827.616 295.356C824.145 295.356 821.336 294.239 819.189 292.002C817.053 289.766 815.986 286.806 815.986 283.124C815.986 279.363 817.171 276.278 819.545 273.873C821.93 271.455 824.947 270.247 828.598 270.247C831.244 270.247 833.464 270.676 835.261 271.534V274.685C833.294 273.443 830.966 272.822 828.277 272.822C825.553 272.822 823.321 273.759 821.579 275.634C819.84 277.51 818.968 279.939 818.968 282.919C818.968 285.992 819.777 288.409 821.394 290.172C823.01 291.922 825.202 292.798 827.972 292.798C829.871 292.798 831.515 292.42 832.905 291.662V284.852H827.581V282.276H835.752V293.29ZM844.264 294.95H841.416V270.653H844.264V294.95ZM842.839 268.399C842.388 268.399 841.992 268.241 841.653 267.926C841.325 267.598 841.16 267.197 841.16 266.721C841.16 266.27 841.325 265.887 841.653 265.569C841.98 265.254 842.376 265.096 842.839 265.096C843.303 265.096 843.693 265.254 844.009 265.569C844.337 265.875 844.501 266.26 844.501 266.721C844.501 267.185 844.337 267.58 844.009 267.908C843.693 268.236 843.303 268.399 842.839 268.399ZM859.064 293.968V290.612C859.448 290.951 859.906 291.256 860.438 291.527C860.981 291.799 861.545 292.03 862.134 292.222C862.733 292.403 863.332 292.543 863.931 292.646C864.53 292.746 865.083 292.798 865.592 292.798C867.344 292.798 868.649 292.476 869.509 291.832C870.378 291.178 870.814 290.239 870.814 289.02C870.814 288.364 870.667 287.795 870.373 287.309C870.09 286.823 869.694 286.382 869.186 285.987C868.677 285.581 868.073 285.196 867.371 284.835C866.682 284.462 865.936 284.071 865.134 283.665C864.286 283.237 863.495 282.801 862.761 282.361C862.026 281.92 861.387 281.434 860.844 280.903C860.302 280.372 859.872 279.774 859.556 279.108C859.25 278.431 859.099 277.64 859.099 276.736C859.099 275.629 859.34 274.669 859.827 273.856C860.313 273.032 860.951 272.353 861.743 271.822C862.535 271.291 863.432 270.896 864.439 270.636C865.457 270.377 866.49 270.247 867.542 270.247C869.937 270.247 871.684 270.535 872.779 271.111V274.312C871.345 273.32 869.502 272.822 867.253 272.822C866.632 272.822 866.01 272.889 865.389 273.025C864.766 273.15 864.212 273.358 863.727 273.653C863.241 273.946 862.846 274.324 862.54 274.787C862.234 275.251 862.082 275.815 862.082 276.481C862.082 277.104 862.195 277.64 862.422 278.091C862.658 278.544 863.004 278.955 863.455 279.328C863.908 279.701 864.455 280.062 865.101 280.412C865.755 280.763 866.507 281.146 867.354 281.564C868.226 281.995 869.05 282.446 869.83 282.919C870.609 283.395 871.293 283.92 871.882 284.496C872.469 285.073 872.932 285.709 873.272 286.41C873.621 287.111 873.797 287.913 873.797 288.817C873.797 290.014 873.561 291.031 873.085 291.867C872.621 292.691 871.989 293.362 871.186 293.883C870.396 294.402 869.479 294.775 868.439 295C867.399 295.238 866.304 295.356 865.151 295.356C864.766 295.356 864.292 295.323 863.727 295.255C863.162 295.198 862.585 295.108 861.997 294.985C861.41 294.87 860.851 294.73 860.32 294.56C859.799 294.379 859.38 294.181 859.064 293.968ZM881.494 294.95H878.646V270.653H881.494V294.95ZM880.071 268.399C879.618 268.399 879.222 268.241 878.883 267.926C878.555 267.598 878.392 267.197 878.392 266.721C878.392 266.27 878.555 265.887 878.883 265.569C879.211 265.254 879.607 265.096 880.071 265.096C880.534 265.096 880.923 265.254 881.239 265.569C881.567 265.875 881.732 266.26 881.732 266.721C881.732 267.185 881.567 267.58 881.239 267.908C880.923 268.236 880.534 268.399 880.071 268.399ZM886.767 293.968V290.612C887.151 290.951 887.609 291.256 888.14 291.527C888.683 291.799 889.248 292.03 889.836 292.222C890.435 292.403 891.034 292.543 891.633 292.646C892.232 292.746 892.786 292.798 893.294 292.798C895.046 292.798 896.352 292.476 897.211 291.832C898.081 291.178 898.517 290.239 898.517 289.02C898.517 288.364 898.369 287.795 898.076 287.309C897.793 286.823 897.397 286.382 896.888 285.987C896.379 285.581 895.775 285.196 895.074 284.835C894.385 284.462 893.638 284.071 892.836 283.665C891.989 283.237 891.197 282.801 890.463 282.361C889.729 281.92 889.09 281.434 888.546 280.903C888.005 280.372 887.576 279.774 887.258 279.108C886.953 278.431 886.802 277.64 886.802 276.736C886.802 275.629 887.045 274.669 887.529 273.856C888.015 273.032 888.654 272.353 889.446 271.822C890.237 271.291 891.135 270.896 892.142 270.636C893.159 270.377 894.192 270.247 895.244 270.247C897.64 270.247 899.386 270.535 900.482 271.111V274.312C899.048 273.32 897.204 272.822 894.956 272.822C894.334 272.822 893.713 272.889 893.091 273.025C892.47 273.15 891.916 273.358 891.43 273.653C890.944 273.946 890.548 274.324 890.242 274.787C889.937 275.251 889.784 275.815 889.784 276.481C889.784 277.104 889.897 277.64 890.124 278.091C890.36 278.544 890.706 278.955 891.157 279.328C891.61 279.701 892.157 280.062 892.803 280.412C893.458 280.763 894.209 281.146 895.056 281.564C895.928 281.995 896.753 282.446 897.532 282.919C898.312 283.395 898.996 283.92 899.584 284.496C900.171 285.073 900.634 285.709 900.975 286.41C901.324 287.111 901.499 287.913 901.499 288.817C901.499 290.014 901.263 291.031 900.787 291.867C900.324 292.691 899.692 293.362 898.888 293.883C898.098 294.402 897.181 294.775 896.142 295C895.102 295.238 894.006 295.356 892.853 295.356C892.47 295.356 891.994 295.323 891.43 295.255C890.864 295.198 890.288 295.108 889.699 294.985C889.112 294.87 888.553 294.73 888.022 294.56C887.501 294.379 887.083 294.181 886.767 293.968ZM920.726 273.228H913.707V294.95H910.858V273.228H903.857V270.653H920.726V273.228ZM937.441 294.95H924.558V270.653H936.899V273.228H927.405V281.311H936.187V283.868H927.405V292.375H937.441V294.95ZM966.907 294.95H964.076V278.65C964.076 277.362 964.155 275.787 964.313 273.923H964.246C963.975 275.018 963.732 275.804 963.517 276.278L955.209 294.95H953.819L945.529 276.413C945.291 275.872 945.048 275.041 944.8 273.923H944.732C944.823 274.895 944.868 276.481 944.868 278.684V294.95H942.121V270.653H945.885L953.345 287.597C953.921 288.895 954.295 289.866 954.463 290.51H954.565C955.052 289.178 955.44 288.183 955.735 287.529L963.346 270.653H966.907V294.95ZM976.164 294.95H973.317V270.653H976.164V294.95ZM974.74 268.399C974.287 268.399 973.893 268.241 973.553 267.926C973.225 267.598 973.061 267.197 973.061 266.721C973.061 266.27 973.225 265.887 973.553 265.569C973.881 265.254 974.277 265.096 974.74 265.096C975.204 265.096 975.593 265.254 975.91 265.569C976.237 265.875 976.402 266.26 976.402 266.721C976.402 267.185 976.237 267.58 975.91 267.908C975.593 268.236 975.204 268.399 974.74 268.399Z" fill="white" fill-opacity="0.25"/>
<mask id="mask0_35_2" style="mask-type:luminance" maskUnits="userSpaceOnUse" x="0" y="0" width="348" height="347">
<path d="M347.213 0H0V347H347.213V0Z" fill="white"/>
</mask>
<g mask="url(#mask0_35_2)">
<path fill-rule="evenodd" clip-rule="evenodd" d="M347.213 173.5C347.213 77.6786 269.488 0 173.606 0C77.7262 0 0 77.6786 0 173.5C0 269.322 77.7262 347 173.606 347V173.5H347.213Z" fill="url(#paint0_radial_35_2)"/>
<path d="M295.131 174.945C295.131 242.818 240.075 297.842 172.161 297.842C104.245 297.842 49.1892 242.818 49.1892 174.945C49.1892 107.072 104.245 52.05 172.161 52.05C240.075 52.05 295.131 107.072 295.131 174.945Z" fill="url(#paint1_radial_35_2)"/>
</g>
<defs>
<radialGradient id="paint0_radial_35_2" cx="0" cy="0" r="1" gradientUnits="userSpaceOnUse" gradientTransform="translate(95.4836 88.1958) rotate(48.115) scale(411.715 411.743)">
<stop stop-color="#941652"/>
<stop offset="0.341433" stop-color="#CE1B1B" stop-opacity="0.928934"/>
<stop offset="0.642303" stop-color="#3A1437" stop-opacity="0.744792"/>
<stop offset="1" stop-color="#D9D9D9" stop-opacity="0"/>
</radialGradient>
<radialGradient id="paint1_radial_35_2" cx="0" cy="0" r="1" gradientUnits="userSpaceOnUse" gradientTransform="translate(188.075 189.405) rotate(45.9733) scale(1138.14 1141.7)">
<stop stop-color="#561637"/>
<stop offset="0.706148" stop-color="#561637"/>
<stop offset="1" stop-color="#D9D9D9" stop-opacity="0"/>
</radialGradient>
</defs>
</svg>
