<svg  viewBox="0 0 1200 450" fill="none" xmlns="http://www.w3.org/2000/svg">
<path d="M588.051 157.506H546.447V276.55H513.489V157.506H472.087V130.769H588.051V157.506ZM726.598 213.419C726.598 257.201 706.185 279.092 665.362 279.092C625.757 279.092 605.955 257.709 605.955 214.944V130.769H638.913V215.35C638.913 238.935 648.137 250.728 666.582 250.728C684.688 250.728 693.741 239.343 693.741 216.57V130.769H726.598V213.419ZM882.03 276.55H846.223L835.849 244.121H783.97L773.696 276.55H738.093L791.192 130.769H830.151L882.03 276.55ZM828.321 218.908L812.655 169.908C811.502 166.249 810.688 161.877 810.214 156.794H809.4C809.061 161.064 808.214 165.3 806.856 169.502L790.989 218.908H828.321ZM900.239 276.55V130.769H953.337C969.613 130.769 982.124 133.751 990.874 139.715C999.622 145.679 1004 154.083 1004 164.927C1004 172.789 1001.32 179.668 995.959 185.564C990.669 191.46 983.888 195.561 975.614 197.865V198.271C985.991 199.559 994.265 203.388 1000.43 209.759C1006.67 216.13 1009.79 223.89 1009.79 233.039C1009.79 246.39 1005.01 256.996 995.45 264.859C985.888 272.653 972.835 276.55 956.288 276.55H900.239ZM933.094 154.964V189.529H947.54C954.321 189.529 959.644 187.902 963.51 184.649C967.443 181.328 969.409 176.787 969.409 171.027C969.409 160.318 961.408 154.964 945.403 154.964H933.094ZM933.094 213.927V252.355H950.896C958.491 252.355 964.425 250.592 968.698 247.069C973.038 243.545 975.208 238.732 975.208 232.633C975.208 226.804 973.073 222.229 968.8 218.908C964.595 215.588 958.694 213.927 951.099 213.927H933.094ZM1027.19 270.958V238.427C1033.09 243.375 1039.5 247.102 1046.41 249.61C1053.33 252.05 1060.32 253.27 1067.37 253.27C1071.51 253.27 1075.1 252.896 1078.15 252.152C1081.27 251.406 1083.85 250.389 1085.88 249.102C1087.98 247.745 1089.54 246.187 1090.56 244.425C1091.58 242.596 1092.09 240.63 1092.09 238.529C1092.09 235.682 1091.27 233.14 1089.65 230.904C1088.02 228.667 1085.78 226.601 1082.93 224.703C1080.15 222.805 1076.83 220.976 1072.96 219.213C1069.1 217.451 1064.93 215.655 1060.45 213.826C1049.06 209.081 1040.55 203.287 1034.92 196.442C1029.36 189.596 1026.58 181.328 1026.58 171.636C1026.58 164.046 1028.1 157.54 1031.16 152.118C1034.21 146.628 1038.34 142.121 1043.57 138.597C1048.86 135.073 1054.96 132.498 1061.88 130.871C1068.79 129.177 1076.12 128.329 1083.85 128.329C1091.44 128.329 1098.16 128.804 1103.99 129.753C1109.89 130.634 1115.31 132.023 1120.26 133.921V164.317C1117.82 162.623 1115.15 161.132 1112.23 159.844C1109.38 158.556 1106.43 157.506 1103.38 156.693C1100.33 155.812 1097.28 155.168 1094.22 154.761C1091.24 154.354 1088.39 154.151 1085.68 154.151C1081.95 154.151 1078.56 154.524 1075.51 155.269C1072.46 155.947 1069.88 156.93 1067.78 158.217C1065.67 159.505 1064.05 161.064 1062.89 162.894C1061.74 164.656 1061.16 166.655 1061.16 168.892C1061.16 171.332 1061.81 173.534 1063.1 175.5C1064.38 177.397 1066.22 179.227 1068.59 180.989C1070.96 182.684 1073.85 184.378 1077.24 186.072C1080.63 187.699 1084.46 189.393 1088.73 191.155C1094.56 193.595 1099.78 196.204 1104.4 198.983C1109.07 201.694 1113.08 204.778 1116.4 208.234C1119.72 211.691 1122.26 215.655 1124.03 220.128C1125.79 224.534 1126.67 229.684 1126.67 235.581C1126.67 243.713 1125.11 250.559 1121.99 256.117C1118.94 261.606 1114.77 266.079 1109.48 269.535C1104.19 272.924 1098.02 275.363 1090.97 276.855C1083.98 278.345 1076.59 279.092 1068.79 279.092C1060.79 279.092 1053.16 278.413 1045.91 277.058C1038.72 275.703 1032.48 273.67 1027.19 270.958Z" fill="white"/>
<path d="M521.22 324.228H514.201V345.95H511.354V324.228H504.35V321.653H521.22V324.228ZM542.835 336.123C542.835 342.945 539.756 346.356 533.596 346.356C527.697 346.356 524.746 343.075 524.746 336.513V321.653H527.595V336.326C527.595 341.307 529.697 343.798 533.902 343.798C537.959 343.798 539.988 341.392 539.988 336.581V321.653H542.835V336.123ZM537.039 319.399C536.586 319.399 536.195 319.241 535.869 318.926C535.54 318.61 535.376 318.207 535.376 317.721C535.376 317.248 535.535 316.852 535.851 316.536C536.167 316.221 536.553 316.061 537.004 316.061C537.478 316.061 537.881 316.226 538.207 316.554C538.535 316.87 538.7 317.26 538.7 317.721C538.7 318.185 538.54 318.58 538.224 318.908C537.908 319.236 537.513 319.399 537.039 319.399ZM530.528 319.399C530.053 319.399 529.647 319.236 529.306 318.908C528.98 318.57 528.815 318.174 528.815 317.721C528.815 317.248 528.973 316.852 529.291 316.536C529.617 316.221 530.013 316.061 530.476 316.061C530.94 316.061 531.341 316.226 531.681 316.554C532.02 316.87 532.19 317.26 532.19 317.721C532.19 318.185 532.025 318.58 531.697 318.908C531.37 319.236 530.98 319.399 530.528 319.399ZM566.35 345.95H562.96L558.891 339.138C558.519 338.507 558.156 337.969 557.806 337.528C557.457 337.077 557.094 336.709 556.72 336.428C556.359 336.145 555.964 335.942 555.535 335.817C555.116 335.682 554.641 335.615 554.109 335.615H551.771V345.95H548.922V321.653H556.179C557.241 321.653 558.219 321.788 559.111 322.059C560.016 322.319 560.795 322.72 561.451 323.263C562.118 323.804 562.639 324.483 563.01 325.296C563.383 326.098 563.571 327.042 563.571 328.126C563.571 328.973 563.441 329.752 563.18 330.463C562.932 331.164 562.571 331.791 562.095 332.344C561.632 332.897 561.068 333.373 560.401 333.768C559.745 334.152 559.005 334.45 558.179 334.665V334.733C558.587 334.914 558.936 335.123 559.231 335.359C559.536 335.587 559.825 335.857 560.095 336.173C560.366 336.491 560.632 336.852 560.892 337.258C561.163 337.653 561.463 338.116 561.79 338.647L566.35 345.95ZM551.771 324.228V333.04H555.635C556.349 333.04 557.003 332.932 557.602 332.717C558.214 332.502 558.74 332.198 559.179 331.803C559.62 331.395 559.965 330.904 560.213 330.328C560.462 329.742 560.587 329.086 560.587 328.362C560.587 327.064 560.163 326.053 559.316 325.329C558.479 324.595 557.264 324.228 555.67 324.228H551.771ZM586.628 345.95H582.661L573.269 334.835C572.918 334.417 572.703 334.135 572.625 333.987H572.557V345.95H569.708V321.653H572.557V333.073H572.625C572.783 332.825 572.996 332.547 573.269 332.243L582.355 321.653H585.899L575.472 333.31L586.628 345.95ZM592.697 345.95H589.848V321.653H592.697V345.95ZM591.273 319.399C590.82 319.399 590.424 319.241 590.086 318.926C589.758 318.598 589.595 318.197 589.595 317.721C589.595 317.27 589.758 316.887 590.086 316.569C590.414 316.254 590.81 316.096 591.273 316.096C591.737 316.096 592.126 316.254 592.443 316.569C592.77 316.875 592.935 317.26 592.935 317.721C592.935 318.185 592.77 318.58 592.443 318.908C592.126 319.236 591.737 319.399 591.273 319.399ZM614.906 321.653L606.888 336.97V345.95H604.039V337.037L596.223 321.653H599.462L604.903 332.632C604.971 332.767 605.169 333.265 605.497 334.124H605.547C605.662 333.739 605.875 333.243 606.191 332.632L611.889 321.653H614.906ZM631.182 345.95H618.297V321.653H630.64V324.228H621.146V332.311H629.927V334.868H621.146V343.375H631.182V345.95ZM663.174 336.123C663.174 342.945 660.095 346.356 653.933 346.356C648.034 346.356 645.084 343.075 645.084 336.513V321.653H647.932V336.326C647.932 341.307 650.034 343.798 654.239 343.798C658.298 343.798 660.325 341.392 660.325 336.581V321.653H663.174V336.123ZM681.873 345.95H669.261V321.653H672.108V343.375H681.873V345.95ZM702.71 336.123C702.71 342.945 699.63 346.356 693.47 346.356C687.571 346.356 684.62 343.075 684.62 336.513V321.653H687.469V336.326C687.469 341.307 689.571 343.798 693.776 343.798C697.833 343.798 699.863 341.392 699.863 336.581V321.653H702.71V336.123ZM707.661 344.968V341.612C708.045 341.951 708.503 342.256 709.034 342.527C709.576 342.799 710.142 343.03 710.729 343.222C711.328 343.403 711.926 343.543 712.525 343.646C713.126 343.746 713.68 343.798 714.189 343.798C715.94 343.798 717.246 343.476 718.103 342.832C718.975 342.178 719.409 341.239 719.409 340.02C719.409 339.364 719.263 338.795 718.968 338.309C718.687 337.823 718.291 337.382 717.782 336.987C717.274 336.581 716.669 336.196 715.968 335.835C715.279 335.462 714.532 335.071 713.73 334.665C712.883 334.237 712.091 333.801 711.357 333.361C710.621 332.92 709.984 332.434 709.44 331.903C708.899 331.372 708.468 330.774 708.152 330.108C707.847 329.431 707.694 328.64 707.694 327.736C707.694 326.629 707.937 325.669 708.423 324.856C708.909 324.032 709.548 323.353 710.34 322.822C711.13 322.291 712.029 321.896 713.034 321.636C714.051 321.377 715.086 321.247 716.138 321.247C718.534 321.247 720.28 321.535 721.376 322.111V325.312C719.94 324.32 718.098 323.822 715.85 323.822C715.227 323.822 714.605 323.889 713.984 324.025C713.362 324.15 712.808 324.358 712.322 324.653C711.836 324.946 711.442 325.324 711.137 325.787C710.831 326.251 710.678 326.815 710.678 327.481C710.678 328.104 710.791 328.64 711.017 329.091C711.255 329.544 711.6 329.955 712.051 330.328C712.503 330.701 713.051 331.062 713.695 331.412C714.352 331.763 715.103 332.146 715.951 332.564C716.82 332.995 717.647 333.446 718.426 333.919C719.206 334.395 719.89 334.92 720.478 335.496C721.065 336.073 721.529 336.709 721.867 337.41C722.218 338.111 722.393 338.913 722.393 339.817C722.393 341.014 722.155 342.031 721.681 342.867C721.218 343.691 720.584 344.362 719.782 344.883C718.991 345.402 718.076 345.775 717.036 346C715.996 346.238 714.9 346.356 713.748 346.356C713.362 346.356 712.888 346.323 712.322 346.255C711.758 346.198 711.182 346.108 710.593 345.985C710.006 345.87 709.446 345.73 708.914 345.56C708.395 345.379 707.977 345.181 707.661 344.968ZM746.061 345.95H742.907L740.33 339.138H730.023L727.598 345.95H724.428L733.752 321.653H736.702L746.061 345.95ZM739.398 336.581L735.584 326.228C735.459 325.89 735.336 325.347 735.211 324.601H735.143C735.03 325.289 734.9 325.833 734.752 326.228L730.973 336.581H739.398ZM762.269 345.95H749.655V321.653H752.504V343.375H762.269V345.95ZM794.344 345.95H791.192L788.615 339.138H778.307L775.883 345.95H772.711L782.037 321.653H784.987L794.344 345.95ZM787.683 336.581L783.867 326.228C783.744 325.89 783.619 325.347 783.494 324.601H783.426C783.313 325.289 783.183 325.833 783.037 326.228L779.256 336.581H787.683ZM810.282 324.228H800.787V332.632H809.57V335.191H800.787V345.95H797.94V321.653H810.282V324.228ZM827.778 345.95H814.893V321.653H827.236V324.228H817.741V332.311H826.524V334.868H817.741V343.375H827.778V345.95ZM846.834 324.228H839.815V345.95H836.967V324.228H829.965V321.653H846.834V324.228ZM860.193 345.95V321.653H867.11C869.212 321.653 870.881 322.167 872.111 323.195C873.344 324.222 873.96 325.562 873.96 327.21C873.96 328.588 873.587 329.787 872.841 330.803C872.096 331.818 871.066 332.542 869.756 332.972V333.04C871.394 333.231 872.705 333.852 873.69 334.903C874.672 335.942 875.163 337.297 875.163 338.97C875.163 341.047 874.417 342.731 872.926 344.019C871.434 345.306 869.553 345.95 867.28 345.95H860.193ZM863.042 324.228V332.073H865.957C867.518 332.073 868.744 331.7 869.638 330.954C870.53 330.198 870.976 329.136 870.976 327.769C870.976 325.409 869.422 324.228 866.313 324.228H863.042ZM863.042 334.632V343.375H866.907C868.58 343.375 869.874 342.98 870.79 342.188C871.716 341.397 872.179 340.313 872.179 338.935C872.179 336.066 870.224 334.632 866.313 334.632H863.042ZM882.946 345.95H880.097V321.653H882.946V345.95ZM881.521 319.399C881.07 319.399 880.674 319.241 880.335 318.926C880.007 318.598 879.842 318.197 879.842 317.721C879.842 317.27 880.007 316.887 880.335 316.569C880.662 316.254 881.057 316.096 881.521 316.096C881.984 316.096 882.375 316.254 882.691 316.569C883.019 316.875 883.182 317.26 883.182 317.721C883.182 318.185 883.019 318.58 882.691 318.908C882.375 319.236 881.984 319.399 881.521 319.399ZM901.968 345.95H889.354V321.653H892.203V343.375H901.968V345.95ZM922.752 344.29C920.312 345.667 917.6 346.356 914.616 346.356C911.145 346.356 908.336 345.239 906.189 343.002C904.053 340.766 902.986 337.806 902.986 334.124C902.986 330.363 904.171 327.278 906.545 324.873C908.93 322.455 911.947 321.247 915.598 321.247C918.244 321.247 920.464 321.676 922.261 322.534V325.685C920.294 324.443 917.966 323.822 915.277 323.822C912.553 323.822 910.321 324.759 908.579 326.634C906.84 328.51 905.968 330.939 905.968 333.919C905.968 336.992 906.777 339.409 908.394 341.172C910.01 342.922 912.202 343.798 914.972 343.798C916.871 343.798 918.515 343.42 919.905 342.662V335.852H914.581V333.276H922.752V344.29ZM931.264 345.95H928.416V321.653H931.264V345.95ZM929.839 319.399C929.388 319.399 928.992 319.241 928.653 318.926C928.325 318.598 928.16 318.197 928.16 317.721C928.16 317.27 928.325 316.887 928.653 316.569C928.98 316.254 929.376 316.096 929.839 316.096C930.303 316.096 930.693 316.254 931.009 316.569C931.337 316.875 931.501 317.26 931.501 317.721C931.501 318.185 931.337 318.58 931.009 318.908C930.693 319.236 930.303 319.399 929.839 319.399ZM946.064 344.968V341.612C946.448 341.951 946.906 342.256 947.438 342.527C947.981 342.799 948.545 343.03 949.134 343.222C949.733 343.403 950.332 343.543 950.931 343.646C951.53 343.746 952.083 343.798 952.592 343.798C954.344 343.798 955.649 343.476 956.509 342.832C957.378 342.178 957.814 341.239 957.814 340.02C957.814 339.364 957.667 338.795 957.373 338.309C957.09 337.823 956.694 337.382 956.186 336.987C955.677 336.581 955.073 336.196 954.371 335.835C953.682 335.462 952.936 335.071 952.134 334.665C951.286 334.237 950.495 333.801 949.761 333.361C949.026 332.92 948.387 332.434 947.844 331.903C947.302 331.372 946.872 330.774 946.556 330.108C946.25 329.431 946.099 328.64 946.099 327.736C946.099 326.629 946.34 325.669 946.827 324.856C947.313 324.032 947.951 323.353 948.743 322.822C949.535 322.291 950.432 321.896 951.439 321.636C952.457 321.377 953.49 321.247 954.542 321.247C956.937 321.247 958.684 321.535 959.779 322.111V325.312C958.345 324.32 956.502 323.822 954.253 323.822C953.632 323.822 953.01 323.889 952.389 324.025C951.766 324.15 951.212 324.358 950.727 324.653C950.241 324.946 949.846 325.324 949.54 325.787C949.234 326.251 949.082 326.815 949.082 327.481C949.082 328.104 949.195 328.64 949.422 329.091C949.658 329.544 950.004 329.955 950.455 330.328C950.908 330.701 951.455 331.062 952.101 331.412C952.755 331.763 953.507 332.146 954.354 332.564C955.226 332.995 956.05 333.446 956.83 333.919C957.609 334.395 958.293 334.92 958.882 335.496C959.469 336.073 959.932 336.709 960.272 337.41C960.621 338.111 960.797 338.913 960.797 339.817C960.797 341.014 960.561 342.031 960.085 342.867C959.621 343.691 958.989 344.362 958.186 344.883C957.396 345.402 956.479 345.775 955.439 346C954.399 346.238 953.304 346.356 952.151 346.356C951.766 346.356 951.292 346.323 950.727 346.255C950.162 346.198 949.585 346.108 948.997 345.985C948.41 345.87 947.851 345.73 947.32 345.56C946.799 345.379 946.38 345.181 946.064 344.968ZM968.494 345.95H965.646V321.653H968.494V345.95ZM967.071 319.399C966.618 319.399 966.222 319.241 965.883 318.926C965.555 318.598 965.392 318.197 965.392 317.721C965.392 317.27 965.555 316.887 965.883 316.569C966.211 316.254 966.607 316.096 967.071 316.096C967.534 316.096 967.923 316.254 968.239 316.569C968.567 316.875 968.732 317.26 968.732 317.721C968.732 318.185 968.567 318.58 968.239 318.908C967.923 319.236 967.534 319.399 967.071 319.399ZM973.767 344.968V341.612C974.151 341.951 974.609 342.256 975.14 342.527C975.683 342.799 976.248 343.03 976.836 343.222C977.435 343.403 978.034 343.543 978.633 343.646C979.232 343.746 979.786 343.798 980.294 343.798C982.046 343.798 983.352 343.476 984.211 342.832C985.081 342.178 985.517 341.239 985.517 340.02C985.517 339.364 985.369 338.795 985.076 338.309C984.793 337.823 984.397 337.382 983.888 336.987C983.379 336.581 982.775 336.196 982.074 335.835C981.385 335.462 980.638 335.071 979.836 334.665C978.989 334.237 978.197 333.801 977.463 333.361C976.729 332.92 976.09 332.434 975.546 331.903C975.005 331.372 974.576 330.774 974.258 330.108C973.953 329.431 973.802 328.64 973.802 327.736C973.802 326.629 974.045 325.669 974.529 324.856C975.015 324.032 975.654 323.353 976.446 322.822C977.237 322.291 978.135 321.896 979.142 321.636C980.159 321.377 981.192 321.247 982.244 321.247C984.64 321.247 986.386 321.535 987.482 322.111V325.312C986.048 324.32 984.204 323.822 981.956 323.822C981.334 323.822 980.713 323.889 980.091 324.025C979.47 324.15 978.916 324.358 978.43 324.653C977.944 324.946 977.548 325.324 977.242 325.787C976.937 326.251 976.784 326.815 976.784 327.481C976.784 328.104 976.897 328.64 977.124 329.091C977.36 329.544 977.706 329.955 978.157 330.328C978.61 330.701 979.157 331.062 979.803 331.412C980.458 331.763 981.209 332.146 982.056 332.564C982.928 332.995 983.753 333.446 984.532 333.919C985.312 334.395 985.996 334.92 986.584 335.496C987.171 336.073 987.634 336.709 987.975 337.41C988.324 338.111 988.499 338.913 988.499 339.817C988.499 341.014 988.263 342.031 987.787 342.867C987.324 343.691 986.692 344.362 985.888 344.883C985.098 345.402 984.181 345.775 983.142 346C982.102 346.238 981.006 346.356 979.853 346.356C979.47 346.356 978.994 346.323 978.43 346.255C977.864 346.198 977.288 346.108 976.699 345.985C976.112 345.87 975.553 345.73 975.022 345.56C974.501 345.379 974.083 345.181 973.767 344.968ZM1007.73 324.228H1000.71V345.95H997.858V324.228H990.857V321.653H1007.73V324.228ZM1024.44 345.95H1011.56V321.653H1023.9V324.228H1014.4V332.311H1023.19V334.868H1014.4V343.375H1024.44V345.95ZM1053.91 345.95H1051.08V329.65C1051.08 328.362 1051.16 326.787 1051.31 324.923H1051.25C1050.97 326.018 1050.73 326.804 1050.52 327.278L1042.21 345.95H1040.82L1032.53 327.413C1032.29 326.872 1032.05 326.041 1031.8 324.923H1031.73C1031.82 325.895 1031.87 327.481 1031.87 329.684V345.95H1029.12V321.653H1032.89L1040.34 338.597C1040.92 339.895 1041.29 340.866 1041.46 341.51H1041.57C1042.05 340.178 1042.44 339.183 1042.74 338.529L1050.35 321.653H1053.91V345.95ZM1063.16 345.95H1060.32V321.653H1063.16V345.95ZM1061.74 319.399C1061.29 319.399 1060.89 319.241 1060.55 318.926C1060.22 318.598 1060.06 318.197 1060.06 317.721C1060.06 317.27 1060.22 316.887 1060.55 316.569C1060.88 316.254 1061.28 316.096 1061.74 316.096C1062.2 316.096 1062.59 316.254 1062.91 316.569C1063.24 316.875 1063.4 317.26 1063.4 317.721C1063.4 318.185 1063.24 318.58 1062.91 318.908C1062.59 319.236 1062.2 319.399 1061.74 319.399Z" fill="white" fill-opacity="0.25"/>
<mask id="mask0_23_11" style="mask-type:luminance" maskUnits="userSpaceOnUse" x="87" y="51" width="348" height="347">
<path d="M434.213 51H87V398H434.213V51Z" fill="white"/>
</mask>
<g mask="url(#mask0_23_11)">
<path fill-rule="evenodd" clip-rule="evenodd" d="M434.213 224.5C434.213 128.679 356.488 51 260.606 51C164.726 51 87 128.679 87 224.5C87 320.322 164.726 398 260.606 398V224.5H434.213Z" fill="url(#paint0_radial_23_11)"/>
<path d="M382.131 225.945C382.131 293.818 327.075 348.842 259.161 348.842C191.245 348.842 136.189 293.818 136.189 225.945C136.189 158.072 191.245 103.05 259.161 103.05C327.075 103.05 382.131 158.072 382.131 225.945Z" fill="url(#paint1_radial_23_11)"/>
</g>
<defs>
<radialGradient id="paint0_radial_23_11" cx="0" cy="0" r="1" gradientUnits="userSpaceOnUse" gradientTransform="translate(182.484 139.196) rotate(48.115) scale(411.715 411.743)">
<stop stop-color="#941652"/>
<stop offset="0.341433" stop-color="#CE1B1B" stop-opacity="0.928934"/>
<stop offset="0.642303" stop-color="#3A1437" stop-opacity="0.744792"/>
<stop offset="1" stop-color="#D9D9D9" stop-opacity="0"/>
</radialGradient>
<radialGradient id="paint1_radial_23_11" cx="0" cy="0" r="1" gradientUnits="userSpaceOnUse" gradientTransform="translate(275.075 240.405) rotate(45.9733) scale(1138.14 1141.7)">
<stop stop-color="#561637"/>
<stop offset="0.706148" stop-color="#561637"/>
<stop offset="1" stop-color="#D9D9D9" stop-opacity="0"/>
</radialGradient>
</defs>
</svg>
